<?xml version="1.0" encoding="UTF-8" standalone="no"?>
<!DOCTYPE svg PUBLIC "-//W3C//DTD SVG 1.1//EN"
 "http://www.w3.org/Graphics/SVG/1.1/DTD/svg11.dtd">
<!-- Generated by graphviz version 2.43.0 (0)
 -->
<!-- Pages: 1 -->
<svg width="352pt" height="548pt"
 viewBox="0.00 0.00 352.00 548.00" xmlns="http://www.w3.org/2000/svg" xmlns:xlink="http://www.w3.org/1999/xlink">
<g id="graph0" class="graph" transform="scale(1 1) rotate(0) translate(4 544)">
<polygon fill="white" stroke="transparent" points="-4,4 -4,-544 348,-544 348,4 -4,4"/>
<!-- 0 -->
<g id="node1" class="node">
<title>0</title>
<ellipse fill="none" stroke="black" cx="152" cy="-522" rx="27" ry="18"/>
<text text-anchor="middle" x="152" y="-518.3" font-family="Times,serif" font-size="14.00">0</text>
</g>
<!-- A -->
<g id="node2" class="node">
<title>A</title>
<ellipse fill="none" stroke="black" cx="152" cy="-450" rx="27" ry="18"/>
<text text-anchor="middle" x="152" y="-446.3" font-family="Times,serif" font-size="14.00">A</text>
</g>
<!-- 0&#45;&#45;A -->
<g id="edge1" class="edge">
<title>0&#45;&#45;A</title>
<path fill="none" stroke="black" d="M152,-503.7C152,-492.85 152,-478.92 152,-468.1"/>
</g>
<!-- 2 -->
<g id="node3" class="node">
<title>2</title>
<ellipse fill="none" stroke="black" cx="207" cy="-378" rx="27" ry="18"/>
<text text-anchor="middle" x="207" y="-374.3" font-family="Times,serif" font-size="14.00">2</text>
</g>
<!-- 0&#45;&#45;2 -->
<g id="edge2" class="edge">
<title>0&#45;&#45;2</title>
<path fill="none" stroke="black" d="M164.75,-505.7C172.56,-495.59 182.15,-481.71 188,-468 198.17,-444.17 203.11,-414.35 205.34,-395.99"/>
</g>
<!-- 3 -->
<g id="node4" class="node">
<title>3</title>
<ellipse fill="none" stroke="black" cx="97" cy="-306" rx="27" ry="18"/>
<text text-anchor="middle" x="97" y="-302.3" font-family="Times,serif" font-size="14.00">3</text>
</g>
<!-- 0&#45;&#45;3 -->
<g id="edge3" class="edge">
<title>0&#45;&#45;3</title>
<path fill="none" stroke="black" d="M138.81,-505.88C130.83,-495.83 121.21,-481.97 116,-468 97.41,-418.16 95.91,-354.16 96.4,-324.07"/>
</g>
<!-- 4 -->
<g id="node5" class="node">
<title>4</title>
<ellipse fill="none" stroke="black" cx="169" cy="-234" rx="27" ry="18"/>
<text text-anchor="middle" x="169" y="-230.3" font-family="Times,serif" font-size="14.00">4</text>
</g>
<!-- 0&#45;&#45;4 -->
<g id="edge4" class="edge">
<title>0&#45;&#45;4</title>
<path fill="none" stroke="black" d="M168.87,-507.43C180.59,-497.41 196.01,-482.96 207,-468 228.19,-439.17 234.78,-430.82 243,-396 256.57,-338.52 208.16,-276.7 183.11,-249.38"/>
</g>
<!-- 5 -->
<g id="node6" class="node">
<title>5</title>
<ellipse fill="none" stroke="black" cx="131" cy="-162" rx="27" ry="18"/>
<text text-anchor="middle" x="131" y="-158.3" font-family="Times,serif" font-size="14.00">5</text>
</g>
<!-- 0&#45;&#45;5 -->
<g id="edge5" class="edge">
<title>0&#45;&#45;5</title>
<path fill="none" stroke="black" d="M132.66,-509.19C100.14,-487.67 38,-438.75 38,-379 38,-379 38,-379 38,-305 38,-249.89 87.62,-199.52 114.37,-176.38"/>
</g>
<!-- 6 -->
<g id="node7" class="node">
<title>6</title>
<ellipse fill="none" stroke="black" cx="67" cy="-90" rx="27" ry="18"/>
<text text-anchor="middle" x="67" y="-86.3" font-family="Times,serif" font-size="14.00">6</text>
</g>
<!-- 0&#45;&#45;6 -->
<g id="edge6" class="edge">
<title>0&#45;&#45;6</title>
<path fill="none" stroke="black" d="M128.14,-513.13C105.78,-504.79 72.51,-489.79 50,-468 17.4,-436.45 0,-424.37 0,-379 0,-379 0,-379 0,-233 0,-182.57 34.99,-130.87 54.4,-106.07"/>
</g>
<!-- 9 -->
<g id="node8" class="node">
<title>9</title>
<ellipse fill="none" stroke="black" cx="317" cy="-450" rx="27" ry="18"/>
<text text-anchor="middle" x="317" y="-446.3" font-family="Times,serif" font-size="14.00">9</text>
</g>
<!-- 0&#45;&#45;9 -->
<g id="edge7" class="edge">
<title>0&#45;&#45;9</title>
<path fill="none" stroke="black" d="M174.25,-511.56C205.83,-498.16 263.31,-473.78 294.84,-460.4"/>
</g>
<!-- A&#45;&#45;2 -->
<g id="edge8" class="edge">
<title>A&#45;&#45;2</title>
<path fill="none" stroke="black" d="M163.93,-433.81C173.16,-422.07 185.87,-405.89 195.09,-394.16"/>
</g>
<!-- A&#45;&#45;3 -->
<g id="edge9" class="edge">
<title>A&#45;&#45;3</title>
<path fill="none" stroke="black" d="M145.58,-432.43C135.04,-405.22 114.17,-351.33 103.55,-323.9"/>
</g>
<!-- A&#45;&#45;4 -->
<g id="edge10" class="edge">
<title>A&#45;&#45;4</title>
<path fill="none" stroke="black" d="M153.36,-431.85C156.55,-391.78 164.44,-292.38 167.63,-252.23"/>
</g>
<!-- 2&#45;&#45;3 -->
<g id="edge11" class="edge">
<title>2&#45;&#45;3</title>
<path fill="none" stroke="black" d="M187.84,-364.81C167.65,-351.96 136.05,-331.85 115.94,-319.05"/>
</g>
<!-- 2&#45;&#45;4 -->
<g id="edge12" class="edge">
<title>2&#45;&#45;4</title>
<path fill="none" stroke="black" d="M202.49,-360.15C195.18,-332.82 180.81,-279.14 173.5,-251.82"/>
</g>
<!-- 3&#45;&#45;4 -->
<g id="edge13" class="edge">
<title>3&#45;&#45;4</title>
<path fill="none" stroke="black" d="M111.57,-290.83C123.98,-278.77 141.73,-261.51 154.2,-249.38"/>
</g>
<!-- 3&#45;&#45;5 -->
<g id="edge14" class="edge">
<title>3&#45;&#45;5</title>
<path fill="none" stroke="black" d="M101.03,-288.15C107.58,-260.82 120.43,-207.14 126.97,-179.82"/>
</g>
<!-- 3&#45;&#45;6 -->
<g id="edge15" class="edge">
<title>3&#45;&#45;6</title>
<path fill="none" stroke="black" d="M94.6,-287.85C88.96,-247.68 74.98,-147.89 69.37,-107.94"/>
</g>
<!-- 4&#45;&#45;5 -->
<g id="edge16" class="edge">
<title>4&#45;&#45;5</title>
<path fill="none" stroke="black" d="M160.19,-216.76C154.05,-205.46 145.89,-190.44 139.77,-179.15"/>
</g>
<!-- 5&#45;&#45;6 -->
<g id="edge17" class="edge">
<title>5&#45;&#45;6</title>
<path fill="none" stroke="black" d="M117.43,-146.15C106.57,-134.28 91.41,-117.7 80.55,-105.82"/>
</g>
<!-- 8 -->
<g id="node9" class="node">
<title>8</title>
<ellipse fill="none" stroke="black" cx="139" cy="-90" rx="27" ry="18"/>
<text text-anchor="middle" x="139" y="-86.3" font-family="Times,serif" font-size="14.00">8</text>
</g>
<!-- 5&#45;&#45;8 -->
<g id="edge18" class="edge">
<title>5&#45;&#45;8</title>
<path fill="none" stroke="black" d="M132.98,-143.7C134.22,-132.85 135.81,-118.92 137.05,-108.1"/>
</g>
<!-- B -->
<g id="node10" class="node">
<title>B</title>
<ellipse fill="none" stroke="black" cx="67" cy="-18" rx="27" ry="18"/>
<text text-anchor="middle" x="67" y="-14.3" font-family="Times,serif" font-size="14.00">B</text>
</g>
<!-- 6&#45;&#45;B -->
<g id="edge19" class="edge">
<title>6&#45;&#45;B</title>
<path fill="none" stroke="black" d="M67,-71.7C67,-60.85 67,-46.92 67,-36.1"/>
</g>
</g>
</svg>
