<?xml version="1.0" encoding="UTF-8" standalone="no"?>
<!DOCTYPE svg PUBLIC "-//W3C//DTD SVG 1.1//EN"
 "http://www.w3.org/Graphics/SVG/1.1/DTD/svg11.dtd">
<!-- Generated by graphviz version 2.43.0 (0)
 -->
<!-- Pages: 1 -->
<svg width="350pt" height="116pt"
 viewBox="0.00 0.00 350.00 116.00" xmlns="http://www.w3.org/2000/svg" xmlns:xlink="http://www.w3.org/1999/xlink">
<g id="graph0" class="graph" transform="scale(1 1) rotate(0) translate(4 112)">
<polygon fill="white" stroke="transparent" points="-4,4 -4,-112 346,-112 346,4 -4,4"/>
<!-- A -->
<g id="node1" class="node">
<title>A</title>
<ellipse fill="none" stroke="black" cx="135" cy="-90" rx="27" ry="18"/>
<text text-anchor="middle" x="135" y="-86.3" font-family="Times,serif" font-size="14.00">A</text>
</g>
<!-- R1 -->
<g id="node2" class="node">
<title>R1</title>
<ellipse fill="none" stroke="black" cx="315" cy="-18" rx="27" ry="18"/>
<text text-anchor="middle" x="315" y="-14.3" font-family="Times,serif" font-size="14.00">R1</text>
</g>
<!-- A&#45;&#45;R1 -->
<g id="edge1" class="edge">
<title>A&#45;&#45;R1</title>
<path fill="none" stroke="black" d="M156.13,-78.51C160.97,-76.25 166.12,-73.96 171,-72 217.96,-53.16 232.04,-54.84 279,-36 283.88,-34.04 289.03,-31.75 293.87,-29.49"/>
</g>
<!-- R2 -->
<g id="node3" class="node">
<title>R2</title>
<ellipse fill="none" stroke="black" cx="27" cy="-18" rx="27" ry="18"/>
<text text-anchor="middle" x="27" y="-14.3" font-family="Times,serif" font-size="14.00">R2</text>
</g>
<!-- A&#45;&#45;R2 -->
<g id="edge2" class="edge">
<title>A&#45;&#45;R2</title>
<path fill="none" stroke="black" d="M116.19,-76.81C96.37,-63.96 65.34,-43.85 45.6,-31.05"/>
</g>
<!-- R3 -->
<g id="node4" class="node">
<title>R3</title>
<ellipse fill="none" stroke="black" cx="99" cy="-18" rx="27" ry="18"/>
<text text-anchor="middle" x="99" y="-14.3" font-family="Times,serif" font-size="14.00">R3</text>
</g>
<!-- A&#45;&#45;R3 -->
<g id="edge3" class="edge">
<title>A&#45;&#45;R3</title>
<path fill="none" stroke="black" d="M126.65,-72.76C120.83,-61.46 113.11,-46.44 107.3,-35.15"/>
</g>
<!-- R4 -->
<g id="node5" class="node">
<title>R4</title>
<ellipse fill="none" stroke="black" cx="171" cy="-18" rx="27" ry="18"/>
<text text-anchor="middle" x="171" y="-14.3" font-family="Times,serif" font-size="14.00">R4</text>
</g>
<!-- A&#45;&#45;R4 -->
<g id="edge4" class="edge">
<title>A&#45;&#45;R4</title>
<path fill="none" stroke="black" d="M143.35,-72.76C149.17,-61.46 156.89,-46.44 162.7,-35.15"/>
</g>
<!-- R5 -->
<g id="node6" class="node">
<title>R5</title>
<ellipse fill="none" stroke="black" cx="243" cy="-18" rx="27" ry="18"/>
<text text-anchor="middle" x="243" y="-14.3" font-family="Times,serif" font-size="14.00">R5</text>
</g>
<!-- A&#45;&#45;R5 -->
<g id="edge5" class="edge">
<title>A&#45;&#45;R5</title>
<path fill="none" stroke="black" d="M153.81,-76.81C173.63,-63.96 204.66,-43.85 224.4,-31.05"/>
</g>
<!-- B -->
<g id="node7" class="node">
<title>B</title>
<ellipse fill="none" stroke="black" cx="207" cy="-90" rx="27" ry="18"/>
<text text-anchor="middle" x="207" y="-86.3" font-family="Times,serif" font-size="14.00">B</text>
</g>
<!-- B&#45;&#45;R1 -->
<g id="edge6" class="edge">
<title>B&#45;&#45;R1</title>
<path fill="none" stroke="black" d="M225.81,-76.81C245.63,-63.96 276.66,-43.85 296.4,-31.05"/>
</g>
<!-- B&#45;&#45;R2 -->
<g id="edge7" class="edge">
<title>B&#45;&#45;R2</title>
<path fill="none" stroke="black" d="M185.87,-78.51C181.03,-76.25 175.88,-73.96 171,-72 124.04,-53.16 109.96,-54.84 63,-36 58.12,-34.04 52.97,-31.75 48.13,-29.49"/>
</g>
<!-- B&#45;&#45;R3 -->
<g id="edge8" class="edge">
<title>B&#45;&#45;R3</title>
<path fill="none" stroke="black" d="M188.19,-76.81C168.37,-63.96 137.34,-43.85 117.6,-31.05"/>
</g>
<!-- B&#45;&#45;R4 -->
<g id="edge9" class="edge">
<title>B&#45;&#45;R4</title>
<path fill="none" stroke="black" d="M198.65,-72.76C192.83,-61.46 185.11,-46.44 179.3,-35.15"/>
</g>
<!-- B&#45;&#45;R5 -->
<g id="edge10" class="edge">
<title>B&#45;&#45;R5</title>
<path fill="none" stroke="black" d="M215.35,-72.76C221.17,-61.46 228.89,-46.44 234.7,-35.15"/>
</g>
</g>
</svg>
